{"title":"Urgences - Raymond Depardon (1988).avi","uid":7850409,"size":734285824,"categoryP":"video","categoryS":"movies","magnet":"?xt=urn:btih:9c2123b8f9a056a748da5d272eb5a0baf95f0980&amp;dn=Urgences+-+Raymond+Depardon+%281988%29.avi&amp;tr=udp%3A%2F%2Ftracker.openbittorrent.com%3A80&amp;tr=udp%3A%2F%2Fopen.demonii.com%3A1337&amp;tr=udp%3A%2F%2Ftracker.coppersurfer.tk%3A6969&amp;tr=udp%3A%2F%2Fexodus.desync.com%3A6969","seeders":0,"leechers":1,"uploader":"Bonie75","files":-1,"time":1353593163,"description":"Urgences - Raymond Depardon (1988).avi\nFormat                                   : AVI\nFormat/Info                              : Audio Video Interleave\nFile size                                : 700 MiB\nDuration                                 : 1h 29mn\nOverall bit rate mode                    : Variable\nOverall bit rate                         : 1 090 Kbps\nWriting application                      : VirtualDubMod 1.5.1.1a (build 1639/release)\nWriting library                          : VirtualDubMod build 1639/release\n\nVideo\nID                                       : 0\nFormat                                   : MPEG-4 Visual\nFormat settings, BVOP                    : No\nFormat settings, QPel                    : No\nFormat settings, GMC                     : No warppoints\nFormat settings, Matrix                  : Default (H.263)\nCodec ID                                 : DX50\nCodec ID/Hint                            : DivX 5\nDuration                                 : 1h 29mn\nBit rate                                 : 942 Kbps\nWidth                                    : 480 pixels\nHeight                                   : 288 pixels\nDisplay aspect ratio                     : 1.667\nFrame rate                               : 25.000 fps\nColor space                              : YUV\nChroma subsampling                       : 4:2:0\nBit depth                                : 8 bits\nScan type                                : Progressive\nCompression mode                         : Lossy\nBits/(Pixel*Frame)                       : 0.273\nStream size                              : 605 MiB (86%)\nWriting library                          : DivX 5.1.0 (UTC 2003-09-02)\n\nAudio\nID                                       : 1\nFormat                                   : MPEG Audio\nFormat version                           : Version 1\nFormat profile                           : Layer 3\nMode                                     : Joint stereo\nMode extension                           : MS Stereo\nCodec ID                                 : 55\nCodec ID/Hint                            : MP3\nDuration                                 : 1h 29mn\nBit rate mode                            : Variable\nBit rate                                 : 135 Kbps\nNominal bit rate                         : 128 Kbps\nChannel(s)                               : 2 channels\nSampling rate                            : 48.0 KHz\nCompression mode                         : Lossy\nStream size                              : 86.7 MiB (12%)\nAlignment                                : Aligned on interleaves\nInterleave, duration                     : 24 ms (0.60 video frame)\nInterleave, preload duration             : 324 ms\nWriting library                          : LAME3.93 \nEncoding settings                        : -m j -V 4 -q 2 -lowpass 17.5 --abr 128\n","torrent":{"xt":"urn:btih:9c2123b8f9a056a748da5d272eb5a0baf95f0980","amp;dn":"Urgences+-+Raymond+Depardon+%281988%29.avi","amp;tr":["udp%3A%2F%2Ftracker.openbittorrent.com%3A80","udp%3A%2F%2Fopen.demonii.com%3A1337","udp%3A%2F%2Ftracker.coppersurfer.tk%3A6969","udp%3A%2F%2Fexodus.desync.com%3A6969"],"infoHash":"9c2123b8f9a056a748da5d272eb5a0baf95f0980","infoHashBuffer":{"type":"Buffer","data":[156,33,35,184,249,160,86,167,72,218,93,39,46,181,160,186,249,95,9,128]},"announce":[],"urlList":[]}}